<svg width="56" height="33" viewBox="0 0 56 33" fill="none" xmlns="http://www.w3.org/2000/svg">
<path d="M27.9975 33C22.0326 33 16.7418 31.014 12.115 28.065C7.59023 25.1863 3.71919 21.4049 0.450758 17.6936C-0.162072 17.0015 -0.141645 15.9784 0.460972 15.2964C4.06646 11.204 8.81589 7.02128 14.0556 4.08237C18.468 1.61489 23.2378 0 27.9975 0C32.7673 0 37.5372 1.61489 41.9496 4.08237C47.1791 7.03131 51.9387 11.214 55.5442 15.3064C56.157 16.0085 56.1468 17.0316 55.5442 17.7036C52.2758 21.4049 48.4047 25.1964 43.8902 28.065C39.2633 31.014 33.9726 33 27.9975 33V33ZM27.9975 5.86778C30.9901 5.86778 33.6968 7.0614 35.6579 8.98723C37.6189 10.903 38.8344 13.5611 38.8344 16.5C38.8344 19.4289 37.6189 22.0869 35.6579 24.0128L35.6476 24.0228C33.6866 25.9486 30.9901 27.1322 27.9975 27.1322C25.015 27.1322 22.3084 25.9486 20.3473 24.0228C18.3863 22.097 17.1708 19.4389 17.1708 16.5C17.1708 13.5711 18.3863 10.9131 20.3473 8.98723C22.3186 7.0614 25.015 5.86778 27.9975 5.86778ZM33.0227 11.5751C31.7357 10.3112 29.9585 9.53891 27.9975 9.53891C26.0364 9.53891 24.2592 10.3112 22.9825 11.565L22.9723 11.5751C21.6955 12.8289 20.9091 14.5742 20.9091 16.5C20.9091 18.4258 21.7058 20.1711 22.9825 21.4249C24.2694 22.6888 26.0364 23.4711 27.9975 23.4711C29.9585 23.4711 31.7357 22.6888 33.0227 21.435C34.2994 20.1711 35.0961 18.4258 35.0961 16.5C35.0961 14.5742 34.2994 12.8389 33.0227 11.5751ZM14.1373 25.0058C18.2024 27.5936 22.8191 29.3389 27.9975 29.3389C33.1759 29.3389 37.7925 27.5936 41.8577 25.0058C45.5551 22.6486 48.8133 19.5994 51.6527 16.51C48.4558 13.0897 44.452 9.70942 40.0907 7.26201C36.2094 5.08541 32.0626 3.67112 27.9975 3.67112C23.9426 3.67112 19.7958 5.08541 15.9145 7.26201C11.5532 9.70942 7.54937 13.0897 4.35244 16.51C7.18168 19.5994 10.4501 22.6486 14.1373 25.0058V25.0058Z" fill="white"/>
</svg>
