<svg width="72" height="35" viewBox="0 0 72 35" fill="none" xmlns="http://www.w3.org/2000/svg">
<path d="M17.0911 5.72753C16.9279 5.62675 16.7417 5.56942 16.5501 5.56099C16.3585 5.55256 16.168 5.59332 15.9966 5.67938L5.47557 10.9592H1.12336C0.825425 10.9592 0.539695 11.0775 0.329024 11.2882C0.118354 11.4989 0 11.7846 0 12.0825V22.4816C0 22.7795 0.118354 23.0653 0.329024 23.2759C0.539695 23.4866 0.825425 23.605 1.12336 23.605H5.47557L15.9966 28.8944C16.1679 28.9804 16.3584 29.0211 16.5499 29.0127C16.7414 29.0042 16.9275 28.947 17.0906 28.8463C17.2538 28.7456 17.3884 28.6048 17.4817 28.4374C17.575 28.27 17.624 28.0815 17.6239 27.8898V6.67436C17.6224 6.48436 17.5727 6.29784 17.4796 6.13225C17.3864 5.96666 17.2527 5.82741 17.0911 5.72753V5.72753ZM2.24672 13.2059H4.6154V21.3583H2.24672V13.2059ZM15.3772 26.0699L6.86532 21.7755V12.7886L15.3772 8.49741V26.0699Z" fill="white"/>
<path d="M25.874 17.2694L29.6893 13.4551C30.0072 13.1373 30.0072 12.6222 29.6893 12.3043C29.3713 11.9865 28.8561 11.9865 28.5381 12.3043L24.7229 16.1185L20.9077 12.3043C20.5897 11.9865 20.0745 11.9865 19.7565 12.3043C19.4386 12.6222 19.4386 13.1373 19.7565 13.4551L23.5717 17.2694L19.7565 21.0836C19.4386 21.4014 19.4386 21.9166 19.7565 22.2344C19.91 22.3879 20.1183 22.4756 20.3266 22.4756C20.5349 22.4756 20.7432 22.3988 20.8967 22.2344L24.7229 18.4202L28.5381 22.2344C28.6916 22.3879 28.8999 22.4756 29.1082 22.4756C29.3165 22.4756 29.5248 22.3988 29.6783 22.2344C29.9962 21.9166 29.9962 21.4014 29.6783 21.0836L25.874 17.2694Z" fill="white"/>
<path d="M58.1205 23.4079C59.0039 23.4024 59.8717 23.1738 60.6432 22.7433C61.4147 22.3128 62.0649 21.6944 62.5335 20.9454C63.0021 20.1965 63.2738 19.3412 63.3235 18.4592C63.3732 17.5771 63.1993 16.6968 62.8178 15.8999L55.8564 22.8787C56.5608 23.2257 57.3353 23.4067 58.1205 23.4079Z" fill="white"/>
<path d="M61.8159 14.4686L63.8111 12.4735L65.1123 11.1723L66.7084 9.57177C66.8415 9.40549 66.9087 9.19607 66.8973 8.98342C66.8859 8.77077 66.7967 8.56974 66.6467 8.41862C66.4966 8.2675 66.2962 8.17685 66.0837 8.16395C65.8711 8.15104 65.6612 8.21678 65.494 8.34864L63.412 10.4306C61.718 9.805 59.9264 9.48486 58.1205 9.48502C55.2275 9.48958 52.3937 10.3047 49.9405 11.838C47.4873 13.3713 45.5128 15.5613 44.241 18.1597C45.4603 20.6191 47.3064 22.7136 49.5933 24.232L48.2921 25.5332C48.2062 25.6132 48.1374 25.7099 48.09 25.8173C48.0425 25.9246 48.0174 26.0405 48.016 26.1579C48.0147 26.2753 48.0372 26.3918 48.0822 26.5002C48.1271 26.6086 48.1937 26.7068 48.2777 26.7888C48.3617 26.8708 48.4615 26.9348 48.571 26.9771C48.6806 27.0194 48.7975 27.039 48.9148 27.0348C49.0322 27.0305 49.1474 27.0025 49.2536 26.9524C49.3597 26.9023 49.4547 26.8312 49.5325 26.7433L51.133 25.1429L52.4342 23.8416L54.4294 21.8465L61.8159 14.4686ZM50.8424 22.9872C48.9243 21.7841 47.333 20.1259 46.2101 18.1597C47.7394 15.4687 50.1356 13.3754 53.0076 12.2214C55.8797 11.0673 59.058 10.9208 62.0241 11.8055L60.3846 13.445C59.6803 13.0979 58.9057 12.9168 58.1205 12.9159C57.2394 12.9227 56.3742 13.1515 55.6048 13.581C54.8355 14.0106 54.1868 14.6271 53.7186 15.3736C53.2505 16.1201 52.978 16.9726 52.9264 17.8522C52.8747 18.7318 53.0456 19.6103 53.4231 20.4065L50.8424 22.9872Z" fill="white"/>
<path d="M66.6564 12.0787L65.4029 13.3322C67.3185 14.537 68.908 16.1949 70.0308 18.1597C68.8376 20.2663 67.1059 22.0178 65.0131 23.235C62.9203 24.4521 60.5415 25.0911 58.1205 25.0864C56.7987 25.0856 55.484 24.8942 54.2169 24.5183L52.8376 25.8975C54.5298 26.5177 56.3182 26.8349 58.1205 26.8344C61.0134 26.8298 63.8472 26.0147 66.3005 24.4814C68.7537 22.9482 70.7282 20.7581 72 18.1597C70.783 15.6991 68.9401 13.602 66.6564 12.0787V12.0787Z" fill="white"/>
<rect x="47.2771" y="0.355103" width="2.16867" height="38.1687" rx="1.08434" transform="rotate(30 47.2771 0.355103)" fill="white"/>
</svg>
