<svg width="92" height="74" viewBox="0 0 92 74" fill="none" xmlns="http://www.w3.org/2000/svg">
<path d="M54.08 0.999997C53.5717 0.686015 52.9914 0.507391 52.3945 0.481134C51.7976 0.454878 51.2039 0.581863 50.67 0.849998L17.89 17.3H4.33C3.40174 17.3 2.51151 17.6687 1.85513 18.3251C1.19875 18.9815 0.830002 19.8717 0.830002 20.8V53.2C0.830002 54.1283 1.19875 55.0185 1.85513 55.6749C2.51151 56.3312 3.40174 56.7 4.33 56.7H17.89L50.67 73.18C51.2038 73.4479 51.7972 73.5748 52.3938 73.5485C52.9904 73.5223 53.5704 73.3438 54.0786 73.0301C54.5868 72.7163 55.0062 72.2778 55.297 71.7562C55.5878 71.2346 55.7403 70.6472 55.74 70.05V3.95C55.7354 3.35802 55.5807 2.77689 55.2903 2.26097C55 1.74505 54.5836 1.3112 54.08 0.999997V0.999997ZM7.83 24.3H15.21V49.7H7.83V24.3ZM48.74 64.38L22.22 51V23L48.74 9.63V64.38Z" fill="white"/>
<path d="M79.76 9.46999C79.097 8.81358 78.2003 8.44744 77.2673 8.45213C76.3343 8.45682 75.4414 8.83195 74.785 9.49499C74.1286 10.158 73.7625 11.0547 73.7671 11.9877C73.7718 12.9207 74.147 13.8136 74.81 14.47C77.7753 17.4342 80.1275 20.9535 81.7324 24.827C83.3373 28.7005 84.1633 32.8522 84.1633 37.045C84.1633 41.2378 83.3373 45.3895 81.7324 49.263C80.1275 53.1364 77.7753 56.6558 74.81 59.62C74.147 60.2764 73.7718 61.1693 73.7671 62.1023C73.7625 63.0353 74.1286 63.9319 74.785 64.595C75.4414 65.258 76.3343 65.6332 77.2673 65.6378C78.2003 65.6425 79.097 65.2764 79.76 64.62C83.3754 61.0058 86.2433 56.7147 88.2 51.9919C90.1567 47.2691 91.1638 42.2071 91.1638 37.095C91.1638 31.9829 90.1567 26.9209 88.2 22.1981C86.2433 17.4753 83.3754 13.1842 79.76 9.56999V9.46999Z" fill="white"/>
<path d="M67.51 21.73C66.847 21.0736 65.9503 20.7075 65.0173 20.7121C64.0843 20.7168 63.1914 21.092 62.535 21.755C61.8786 22.418 61.5124 23.3147 61.5171 24.2477C61.5218 25.1807 61.8969 26.0736 62.56 26.73C65.2957 29.4677 66.8325 33.1797 66.8325 37.05C66.8325 40.9203 65.2957 44.6323 62.56 47.37C62.235 47.6983 61.9778 48.0874 61.8032 48.5151C61.6285 48.9428 61.5398 49.4007 61.5421 49.8627C61.5445 50.3246 61.6377 50.7816 61.8167 51.2076C61.9956 51.6335 62.2567 52.02 62.585 52.345C62.9133 52.67 63.3024 52.9272 63.7301 53.1018C64.1578 53.2765 64.6157 53.3652 65.0777 53.3629C65.5396 53.3605 65.9966 53.2672 66.4225 53.0883C66.8485 52.9094 67.235 52.6483 67.56 52.32C71.6086 48.2695 73.883 42.777 73.883 37.05C73.883 31.323 71.6086 25.8305 67.56 21.78L67.51 21.73Z" fill="white"/>
</svg>
