<svg width="72" height="35" viewBox="0 0 72 35" fill="none" xmlns="http://www.w3.org/2000/svg">
<path d="M17.0911 5.37245C16.9279 5.27168 16.7417 5.21435 16.5501 5.20592C16.3585 5.19749 16.168 5.23825 15.9966 5.32431L5.47557 10.6041H1.12336C0.825425 10.6041 0.539695 10.7224 0.329024 10.9331C0.118354 11.1438 0 11.4295 0 11.7275V22.1265C0 22.4245 0.118354 22.7102 0.329024 22.9209C0.539695 23.1315 0.825425 23.2499 1.12336 23.2499H5.47557L15.9966 28.5393C16.1679 28.6253 16.3584 28.666 16.5499 28.6576C16.7414 28.6492 16.9275 28.5919 17.0906 28.4912C17.2537 28.3905 17.3884 28.2497 17.4817 28.0823C17.575 27.9149 17.624 27.7264 17.6239 27.5347V6.31928C17.6224 6.12928 17.5727 5.94276 17.4796 5.77718C17.3864 5.61159 17.2527 5.47234 17.0911 5.37245V5.37245ZM2.24672 12.8508H4.6154V21.0032H2.24672V12.8508ZM15.3772 25.7149L6.86532 21.4204V12.4336L15.3772 8.14233V25.7149Z" fill="white"/>
<path d="M25.3333 8.09096C25.1205 7.88027 24.8327 7.76276 24.5333 7.76427C24.2338 7.76577 23.9472 7.88617 23.7366 8.09898C23.5259 8.31179 23.4084 8.59958 23.4099 8.89903C23.4114 9.19848 23.5318 9.48507 23.7446 9.69575C24.6963 10.6471 25.4513 11.7767 25.9664 13.0199C26.4815 14.2632 26.7466 15.5957 26.7466 16.9414C26.7466 18.2871 26.4815 19.6197 25.9664 20.8629C25.4513 22.1061 24.6963 23.2357 23.7446 24.1871C23.5318 24.3978 23.4114 24.6844 23.4099 24.9838C23.4084 25.2833 23.5259 25.571 23.7366 25.7839C23.9472 25.9967 24.2338 26.1171 24.5333 26.1186C24.8327 26.1201 25.1205 26.0026 25.3333 25.7919C26.4937 24.6319 27.4142 23.2546 28.0422 21.7388C28.6703 20.2229 28.9935 18.5982 28.9935 16.9575C28.9935 15.3167 28.6703 13.692 28.0422 12.1762C27.4142 10.6603 26.4937 9.28307 25.3333 8.12305V8.09096Z" fill="white"/>
<path d="M21.4016 12.0259C21.1888 11.8152 20.901 11.6977 20.6015 11.6992C20.3021 11.7007 20.0155 11.8211 19.8048 12.0339C19.5941 12.2468 19.4766 12.5345 19.4781 12.834C19.4796 13.1334 19.6 13.42 19.8128 13.6307C20.6909 14.5094 21.1841 15.7008 21.1841 16.943C21.1841 18.1852 20.6909 19.3766 19.8128 20.2553C19.7085 20.3607 19.626 20.4856 19.5699 20.6229C19.5139 20.7601 19.4854 20.9071 19.4861 21.0554C19.4869 21.2036 19.5168 21.3503 19.5743 21.487C19.6317 21.6237 19.7155 21.7478 19.8209 21.8521C19.9262 21.9564 20.0511 22.039 20.1884 22.095C20.3257 22.1511 20.4726 22.1795 20.6209 22.1788C20.7692 22.178 20.9159 22.1481 21.0526 22.0907C21.1893 22.0332 21.3133 21.9494 21.4176 21.8441C22.7171 20.544 23.4471 18.7811 23.4471 16.943C23.4471 15.1049 22.7171 13.342 21.4176 12.042L21.4016 12.0259Z" fill="white"/>
<path d="M58.1205 9.97591C60.5428 9.97258 62.9224 10.6135 65.0154 11.833C67.1083 13.0525 68.8393 14.8067 70.0308 16.9157C68.8335 19.0184 67.1008 20.7667 65.0088 21.9828C62.9169 23.1989 60.5402 23.8395 58.1205 23.8395C55.7007 23.8395 53.3241 23.1989 51.2322 21.9828C49.1402 20.7667 47.4075 19.0184 46.2101 16.9157C47.4017 14.8067 49.1326 13.0525 51.2256 11.833C53.3186 10.6135 55.6982 9.97258 58.1205 9.97591V9.97591ZM58.1205 8.24097C55.2275 8.24552 52.3937 9.06066 49.9405 10.5939C47.4873 12.1272 45.5128 14.3172 44.241 16.9157C45.5091 19.517 47.4827 21.7095 49.9368 23.2433C52.3908 24.7771 55.2265 25.5904 58.1205 25.5904C61.0144 25.5904 63.8501 24.7771 66.3042 23.2433C68.7582 21.7095 70.7319 19.517 72 16.9157C70.7282 14.3172 68.7537 12.1272 66.3005 10.5939C63.8473 9.06066 61.0135 8.24552 58.1205 8.24097V8.24097Z" fill="white"/>
<path d="M58.1205 11.6718C57.0817 11.6641 56.0641 11.965 55.1966 12.5365C54.3291 13.108 53.6509 13.9242 53.248 14.8817C52.8452 15.8392 52.7357 16.8948 52.9336 17.9145C53.1315 18.9343 53.6279 19.8723 54.3597 20.6096C55.0914 21.3469 56.0257 21.8502 57.044 22.0557C58.0622 22.2612 59.1186 22.1597 60.0791 21.764C61.0395 21.3683 61.8608 20.6962 62.4388 19.833C63.0167 18.9698 63.3253 17.9545 63.3253 16.9157C63.3305 16.2289 63.1996 15.5479 62.9404 14.9119C62.6811 14.2759 62.2985 13.6975 61.8147 13.21C61.3309 12.7226 60.7554 12.3357 60.1213 12.0717C59.4873 11.8077 58.8073 11.6718 58.1205 11.6718V11.6718ZM56.3855 16.9157C56.0424 16.9157 55.707 16.8139 55.4217 16.6233C55.1364 16.4326 54.914 16.1617 54.7827 15.8447C54.6514 15.5276 54.617 15.1788 54.6839 14.8423C54.7509 14.5057 54.9161 14.1966 55.1588 13.9539C55.4014 13.7113 55.7105 13.5461 56.0471 13.4791C56.3836 13.4122 56.7325 13.4465 57.0495 13.5778C57.3665 13.7092 57.6375 13.9315 57.8281 14.2168C58.0187 14.5022 58.1205 14.8376 58.1205 15.1807C58.1205 15.6409 57.9377 16.0821 57.6123 16.4075C57.287 16.7329 56.8457 16.9157 56.3855 16.9157Z" fill="white"/>
<rect x="45.9759" width="2.16867" height="38.1687" rx="1.08434" transform="rotate(30 45.9759 0)" fill="white"/>
</svg>
