<svg width="48" height="15" viewBox="0 0 64 20" fill="none" xmlns="http://www.w3.org/2000/svg">
<path d="M53.0489 19.5623C52.7644 19.2767 52.6222 18.9197 52.6222 18.5627C52.6222 18.2058 52.7644 17.8488 53.0489 17.5632L59.1644 11.4232L1.42222 11.4232C0.639998 11.4232 -1.54972e-06 10.7807 -1.54972e-06 9.99532C-1.54972e-06 9.20997 0.639998 8.56741 1.42222 8.56741L59.1644 8.56741L53.0489 2.42744C52.48 1.85627 52.48 0.999531 53.0489 0.428371C53.6178 -0.14279 54.4711 -0.14279 55.04 0.428371L63.5733 8.99578C63.6444 9.06718 63.7156 9.13858 63.7867 9.20997C63.7867 9.28137 63.8578 9.28136 63.8578 9.35276C63.8578 9.42415 63.9289 9.42415 63.9289 9.49555C63.9289 9.56694 63.9289 9.56694 64 9.63834C64 9.70973 64 9.70974 64 9.78113C64 9.85253 64 9.99531 64 10.0667C64 10.1381 64 10.2809 64 10.3523C64 10.4237 64 10.4237 63.9289 10.4951C63.9289 10.5665 63.9289 10.5665 63.8578 10.6379C63.8578 10.7093 63.7867 10.7093 63.7867 10.7807C63.7867 10.7807 63.7867 10.8521 63.7156 10.8521C63.6444 10.9235 63.5733 10.9948 63.5022 11.0662L54.9689 19.6337C54.4711 20.1334 53.6178 20.1334 53.0489 19.5623Z" fill="white"/>
</svg>
