<svg width="20" height="20" viewBox="0 0 25 24" fill="none" xmlns="http://www.w3.org/2000/svg">
<path d="M22.9499 0H15.3135C14.7113 0 14.2226 0.488727 14.2226 1.09091C14.2226 1.69309 14.7113 2.18182 15.3135 2.18182H20.3164L13.4513 9.04691C13.0253 9.47291 13.0253 10.1635 13.4513 10.5895C13.6646 10.8027 13.9433 10.9091 14.2226 10.9091C14.5019 10.9091 14.7806 10.8027 14.9939 10.5895L21.8589 3.72436V8.72727C21.8589 9.32946 22.3477 9.81818 22.9499 9.81818C23.552 9.81818 24.0408 9.32946 24.0408 8.72727V1.09091C24.0408 0.488727 23.552 0 22.9499 0Z" fill="white"/>
<path d="M9.08768 13.4105L2.22259 20.2756V15.2727C2.22259 14.6705 1.73386 14.1818 1.13168 14.1818C0.529499 14.1818 0.0407715 14.6705 0.0407715 15.2727V22.9091C0.0407715 23.5113 0.529499 24 1.13168 24H8.76805C9.37023 24 9.85895 23.5113 9.85895 22.9091C9.85895 22.3069 9.37023 21.8182 8.76805 21.8182H3.76514L10.6302 14.9531C11.0562 14.5271 11.0562 13.8365 10.6302 13.4105C10.2048 12.9845 9.51314 12.9845 9.08768 13.4105Z" fill="white"/>
</svg>
