<svg width="80" height="64" viewBox="0 0 80 64" fill="none" xmlns="http://www.w3.org/2000/svg">
<path d="M72 36.2021V32C72 23.5131 68.6286 15.3737 62.6274 9.37258C56.6263 3.37142 48.4869 0 40 0C31.5131 0 23.3737 3.37142 17.3726 9.37258C11.3714 15.3737 8 23.5131 8 32V36.2021C5.74282 36.6655 3.71452 37.8932 2.25718 39.678C0.799834 41.4629 0.0026239 43.6957 0 46V54C0.00246238 56.6514 1.05682 59.1935 2.93165 61.0684C4.80648 62.9432 7.34859 63.9975 10 64H14C14.2627 64.0002 14.5228 63.9485 14.7656 63.8481C15.0083 63.7476 15.2288 63.6003 15.4146 63.4146C15.6003 63.2288 15.7476 63.0083 15.8481 62.7656C15.9485 62.5228 16.0002 62.2627 16 62V38C16.0002 37.7373 15.9485 37.4772 15.8481 37.2344C15.7476 36.9917 15.6003 36.7712 15.4146 36.5854C15.2288 36.3997 15.0083 36.2524 14.7656 36.1519C14.5228 36.0515 14.2627 35.9998 14 36H12V32C12 24.5739 14.95 17.452 20.201 12.201C25.452 6.94999 32.5739 4 40 4C47.4261 4 54.548 6.94999 59.799 12.201C65.05 17.452 68 24.5739 68 32V36H66C65.7373 35.9998 65.4772 36.0515 65.2344 36.1519C64.9917 36.2524 64.7712 36.3997 64.5854 36.5854C64.3997 36.7712 64.2524 36.9917 64.1519 37.2344C64.0515 37.4772 63.9998 37.7373 64 38V62C63.9998 62.2627 64.0515 62.5228 64.1519 62.7656C64.2524 63.0083 64.3997 63.2288 64.5854 63.4146C64.7712 63.6003 64.9917 63.7476 65.2344 63.8481C65.4772 63.9485 65.7373 64.0002 66 64H70C72.6514 63.9975 75.1935 62.9432 77.0684 61.0684C78.9432 59.1935 79.9975 56.6514 80 54V46C79.9974 43.6957 79.2002 41.4629 77.7428 39.678C76.2855 37.8932 74.2572 36.6655 72 36.2021V36.2021Z" fill="white"/>
</svg>
