<svg width="20" height="20" viewBox="0 0 25 24" fill="none" xmlns="http://www.w3.org/2000/svg">
<path d="M9.81805 13H2.18168C1.5795 13 1.09077 13.4887 1.09077 14.0909C1.09077 14.6931 1.5795 15.1818 2.18168 15.1818H7.18459L0.3195 22.0469C-0.1065 22.4729 -0.1065 23.1635 0.3195 23.5895C0.532773 23.8027 0.811501 23.9091 1.09077 23.9091C1.37005 23.9091 1.64877 23.8027 1.86205 23.5895L8.72714 16.7244V21.7273C8.72714 22.3295 9.21587 22.8182 9.81805 22.8182C10.4202 22.8182 10.909 22.3295 10.909 21.7273V14.0909C10.909 13.4887 10.4202 13 9.81805 13Z" fill="white"/>
<path d="M22.1895 0.410534L15.3244 7.27563V2.27272C15.3244 1.67053 14.8357 1.18181 14.2335 1.18181C13.6313 1.18181 13.1426 1.67053 13.1426 2.27272V9.90908C13.1426 10.5113 13.6313 11 14.2335 11H21.8699C22.472 11 22.9608 10.5113 22.9608 9.90908C22.9608 9.3069 22.472 8.81817 21.8699 8.81817H16.8669L23.732 1.95308C24.158 1.52708 24.158 0.836534 23.732 0.410534C23.3066 -0.0154661 22.6149 -0.0154661 22.1895 0.410534Z" fill="white"/>
</svg>
