<svg width="25" height="20" viewBox="0 0 25 20" fill="none" xmlns="http://www.w3.org/2000/svg">
<path d="M13.2625 0.139454C13.1445 0.0556669 13.0097 0.00800066 12.8711 0.000993991C12.7325 -0.00601268 12.5947 0.0278737 12.4707 0.099426L5.39795 4.48915H1.71064C1.4951 4.48915 1.28839 4.58755 1.13598 4.7627C0.983572 4.93786 0.897949 5.17542 0.897949 5.42313V14.0691C0.897949 14.3169 0.983572 14.5544 1.13598 14.7296C1.28839 14.9047 1.4951 15.0031 1.71064 15.0031H5.39795L12.4707 19.4009C12.5946 19.4723 12.7324 19.5062 12.871 19.4992C13.0095 19.4922 13.1442 19.4446 13.2622 19.3608C13.3802 19.2771 13.4776 19.1601 13.5451 19.0209C13.6126 18.8817 13.648 18.725 13.648 18.5656V0.926668C13.6469 0.768698 13.6109 0.613622 13.5435 0.475948C13.4761 0.338273 13.3794 0.222499 13.2625 0.139454ZM2.52334 6.35711H4.23696V13.1352H2.52334V6.35711ZM12.0226 17.0526L5.86467 13.4821V6.0102L12.0226 2.44239V17.0526Z" fill="white"/>
<path d="M21.8682 2.38918C21.692 2.21478 21.4538 2.11751 21.2059 2.11876C20.9581 2.12 20.7208 2.21967 20.5464 2.39582C20.372 2.57198 20.2748 2.8102 20.276 3.05808C20.2773 3.30596 20.3769 3.54319 20.5531 3.71758C21.3409 4.50511 21.9658 5.44014 22.3922 6.46924C22.8186 7.49835 23.0381 8.60138 23.0381 9.71532C23.0381 10.8293 22.8186 11.9323 22.3922 12.9614C21.9658 13.9905 21.3409 14.9255 20.5531 15.7131C20.3769 15.8875 20.2773 16.1247 20.276 16.3726C20.2748 16.6204 20.372 16.8587 20.5464 17.0348C20.7208 17.211 20.9581 17.3106 21.2059 17.3119C21.4538 17.3131 21.692 17.2159 21.8682 17.0415C22.8287 16.0812 23.5907 14.9412 24.1105 13.6864C24.6304 12.4317 24.898 11.0868 24.898 9.72861C24.898 8.37042 24.6304 7.02554 24.1105 5.77078C23.5907 4.51603 22.8287 3.37598 21.8682 2.41575V2.38918Z" fill="white"/>
<path d="M18.6136 5.64632C18.4374 5.47193 18.1992 5.37465 17.9513 5.3759C17.7034 5.37714 17.4662 5.47681 17.2918 5.65296C17.1174 5.82912 17.0201 6.06734 17.0214 6.31522C17.0226 6.5631 17.1223 6.80033 17.2984 6.97472C18.0253 7.70208 18.4336 8.68828 18.4336 9.71655C18.4336 10.7448 18.0253 11.731 17.2984 12.4584C17.2121 12.5456 17.1438 12.649 17.0974 12.7626C17.051 12.8762 17.0274 12.9979 17.028 13.1206C17.0286 13.2434 17.0534 13.3648 17.101 13.4779C17.1485 13.5911 17.2179 13.6938 17.3051 13.7801C17.3923 13.8665 17.4957 13.9348 17.6093 13.9812C17.7229 14.0276 17.8446 14.0512 17.9673 14.0506C18.0901 14.0499 18.2115 14.0252 18.3246 13.9776C18.4378 13.9301 18.5405 13.8607 18.6268 13.7735C19.7025 12.6973 20.3067 11.2381 20.3067 9.71655C20.3067 8.19501 19.7025 6.73574 18.6268 5.65961L18.6136 5.64632Z" fill="white"/>
<path d="M1.64801 5.62512H6.52301L12.148 1.87512V17.8217L6.52301 13.8751H1.64801V5.62512Z" fill="white"/>
</svg>
