<svg width="28" height="20" viewBox="0 0 28 20" fill="none" xmlns="http://www.w3.org/2000/svg">
<path d="M13.2625 0.139454C13.1445 0.0556669 13.0097 0.00800066 12.8711 0.000993991C12.7325 -0.00601268 12.5947 0.0278737 12.4707 0.099426L5.39795 4.48915H1.71064C1.4951 4.48915 1.28839 4.58755 1.13598 4.7627C0.983572 4.93786 0.897949 5.17542 0.897949 5.42313V14.0691C0.897949 14.3169 0.983572 14.5544 1.13598 14.7296C1.28839 14.9047 1.4951 15.0031 1.71064 15.0031H5.39795L12.4707 19.4009C12.5946 19.4723 12.7324 19.5062 12.871 19.4992C13.0095 19.4922 13.1442 19.4446 13.2622 19.3608C13.3802 19.2771 13.4776 19.1601 13.5451 19.0209C13.6126 18.8817 13.648 18.725 13.648 18.5656V0.926668C13.6469 0.768698 13.6109 0.613622 13.5435 0.475948C13.4761 0.338273 13.3794 0.222499 13.2625 0.139454ZM2.52334 6.35711H4.23696V13.1352H2.52334V6.35711ZM12.0226 17.0526L5.86467 13.4821V6.0102L12.0226 2.44239V17.0526Z" fill="white"/>
<path d="M18.1503 6.91677C17.7597 6.52625 17.7597 5.89309 18.1503 5.50256L18.327 5.32578C18.7176 4.93526 19.3507 4.93526 19.7413 5.32578L26.8123 12.3969C27.2029 12.7874 27.2029 13.4205 26.8123 13.8111L26.6356 13.9878C26.245 14.3784 25.6119 14.3784 25.2213 13.9878L18.1503 6.91677Z" fill="white"/>
<path d="M19.7411 13.9879C19.3506 14.3784 18.7174 14.3784 18.3269 13.9879L18.1501 13.8111C17.7596 13.4206 17.7596 12.7874 18.1501 12.3969L25.2212 5.32583C25.6117 4.93531 26.2449 4.93531 26.6354 5.32583L26.8122 5.50261C27.2027 5.89313 27.2027 6.5263 26.8122 6.91682L19.7411 13.9879Z" fill="white"/>
<path d="M1.64801 5.62511H6.52301L12.148 1.87511V17.8217L6.52301 13.8751H1.64801V5.62511Z" fill="white"/>
</svg>
