<svg width="16" height="16" viewBox="0 0 16 16" fill="none" xmlns="http://www.w3.org/2000/svg">
<path d="M6.97674 13.9373C8.55814 13.9373 10.0279 13.3984 11.2 12.5064L14.4186 15.7213C14.6047 15.9071 14.8465 16 15.0698 16C15.293 16 15.5535 15.9071 15.7209 15.7213C16.093 15.3496 16.093 14.7735 15.7209 14.4019L12.5209 11.187C13.414 10.0163 13.9535 8.5482 13.9535 6.96864C13.9535 3.12195 10.8279 0 6.97674 0C3.12558 0 0 3.12195 0 6.96864C0 10.8153 3.12558 13.9373 6.97674 13.9373ZM6.97674 1.8583C9.78605 1.8583 12.093 4.14402 12.093 6.96864C12.093 9.79326 9.78605 12.079 6.97674 12.079C4.16744 12.079 1.86047 9.77468 1.86047 6.96864C1.86047 4.1626 4.14884 1.8583 6.97674 1.8583Z" fill="#A3A3A3"/>
</svg>
