<svg width="24" height="11" viewBox="0 0 24 11" fill="none" xmlns="http://www.w3.org/2000/svg">
<path d="M1.175 5.454C1.124 5.454 1.081 5.5 1.074 5.554L0.841 7.708L1.074 9.813C1.081 9.871 1.124 9.911 1.175 9.911C1.225 9.911 1.265 9.871 1.274 9.813L1.529 7.708L1.259 5.554C1.259 5.497 1.214 5.454 1.169 5.454H1.175ZM0.27 6.282C0.21 6.282 0.179 6.319 0.166 6.376L0 7.708L0.165 9.016C0.165 9.071 0.21 9.11 0.255 9.11C0.3 9.11 0.344 9.065 0.359 9.006L0.569 7.687L0.359 6.353C0.359 6.292 0.315 6.263 0.269 6.263L0.27 6.282ZM2.099 5.034C2.038 5.034 1.979 5.079 1.979 5.138L1.769 7.701L1.994 10.159C1.994 10.219 2.039 10.279 2.113 10.279C2.174 10.279 2.218 10.218 2.234 10.159L2.488 7.685L2.234 5.137C2.218 5.077 2.173 5.017 2.113 5.017L2.099 5.034ZM3.058 4.928C2.983 4.928 2.923 4.988 2.908 5.063L2.715 7.703L2.925 10.247C2.941 10.324 3 10.385 3.074 10.385C3.149 10.385 3.209 10.324 3.224 10.235L3.464 7.703L3.224 5.08C3.224 5.005 3.164 4.945 3.089 4.945L3.058 4.928V4.928ZM4.213 5.288C4.208 5.198 4.138 5.139 4.054 5.139C3.964 5.139 3.896 5.199 3.89 5.288L3.673 7.718L3.873 10.281C3.873 10.371 3.948 10.438 4.032 10.438C4.106 10.438 4.18 10.37 4.18 10.28L4.407 7.717L4.18 5.273L4.213 5.288V5.288ZM5.022 3.579C4.921 3.579 4.842 3.669 4.842 3.76L4.632 7.717L4.819 10.28C4.819 10.37 4.899 10.444 4.999 10.444C5.093 10.444 5.173 10.354 5.179 10.264L5.388 7.701L5.179 3.729C5.171 3.625 5.091 3.549 4.999 3.549L5.022 3.579ZM5.958 2.635C5.853 2.635 5.763 2.725 5.755 2.829L5.575 7.701L5.74 10.249C5.74 10.369 5.83 10.458 5.935 10.458C6.039 10.458 6.129 10.369 6.145 10.249L6.338 7.701L6.146 2.845C6.13 2.725 6.041 2.635 5.936 2.635H5.958ZM6.925 2.186C6.804 2.186 6.714 2.275 6.7 2.395L6.535 7.67L6.7 10.19C6.714 10.309 6.804 10.415 6.925 10.415C7.044 10.415 7.15 10.31 7.15 10.19L7.345 7.67L7.149 2.395C7.149 2.275 7.044 2.17 6.924 2.17L6.925 2.186ZM8.169 2.215C8.169 2.08 8.064 1.975 7.929 1.975C7.81 1.975 7.689 2.08 7.689 2.215L7.54 7.656L7.689 10.159C7.705 10.294 7.81 10.399 7.945 10.399C8.08 10.399 8.185 10.294 8.185 10.159L8.349 7.656L8.185 2.2L8.169 2.215V2.215ZM8.918 2.081C8.783 2.081 8.663 2.2 8.663 2.335L8.513 7.657L8.663 10.13C8.663 10.28 8.783 10.385 8.918 10.385C9.053 10.385 9.173 10.265 9.173 10.115L9.323 7.641L9.158 2.334C9.158 2.186 9.038 2.064 8.887 2.064L8.918 2.081ZM9.892 2.23C9.728 2.23 9.608 2.365 9.608 2.515L9.505 7.658L9.64 10.132C9.64 10.281 9.759 10.409 9.924 10.409C10.073 10.409 10.195 10.289 10.208 10.124L10.329 7.681L10.194 2.569C10.182 2.405 10.059 2.284 9.909 2.284L9.892 2.23ZM11.093 1.339C11.048 1.31 10.988 1.295 10.928 1.295C10.868 1.295 10.809 1.31 10.763 1.339C10.673 1.393 10.614 1.489 10.614 1.594V1.655L10.51 7.703L10.625 10.152V10.16C10.633 10.22 10.655 10.295 10.699 10.34C10.757 10.401 10.841 10.444 10.933 10.444C11.013 10.444 11.091 10.4 11.142 10.354C11.2 10.294 11.233 10.219 11.233 10.129L11.248 9.889L11.365 7.686L11.23 1.6C11.23 1.496 11.169 1.407 11.095 1.361L11.093 1.339V1.339ZM12.099 0.792C12.054 0.747 12.009 0.731 11.949 0.731C11.875 0.731 11.8 0.747 11.74 0.792C11.665 0.853 11.621 0.942 11.621 1.032V1.061L11.484 7.67L11.56 8.885L11.621 10.07C11.621 10.234 11.769 10.384 11.949 10.384C12.13 10.384 12.279 10.234 12.279 10.055L12.429 7.641L12.279 1.004C12.279 0.884 12.205 0.783 12.114 0.727L12.099 0.792ZM21.048 4.504C20.643 4.504 20.253 4.59 19.909 4.736C19.669 2.082 17.449 0 14.721 0C14.062 0 13.416 0.135 12.832 0.359C12.607 0.449 12.562 0.539 12.547 0.718V10.086C12.563 10.266 12.697 10.416 12.877 10.431H21.062C22.681 10.447 24 9.143 24 7.509C24 5.875 22.681 4.557 21.062 4.557" fill="white"/>
</svg>
