<svg width="20" height="14" viewBox="0 0 24 17" fill="none" xmlns="http://www.w3.org/2000/svg">
<path d="M23.4902 2.58901C23.3512 2.09078 23.0859 1.63683 22.7202 1.27106C22.3544 0.905294 21.9005 0.640065 21.4022 0.501014C19.5322 1.43647e-05 12.0062 1.41856e-05 12.0062 1.41856e-05C12.0062 1.41856e-05 4.49922 -0.00998563 2.61022 0.501014C2.11198 0.640065 1.65804 0.905294 1.29227 1.27106C0.926495 1.63683 0.661267 2.09078 0.522216 2.58901C0.167737 4.50352 -0.00702346 6.44698 0.000215992 8.39401C-0.00565488 10.3337 0.169099 12.2697 0.522216 14.177C0.661267 14.6753 0.926495 15.1292 1.29227 15.495C1.65804 15.8607 2.11198 16.126 2.61022 16.265C4.47822 16.767 12.0062 16.767 12.0062 16.767C12.0062 16.767 19.5122 16.767 21.4022 16.265C21.9005 16.126 22.3544 15.8607 22.7202 15.495C23.0859 15.1292 23.3512 14.6753 23.4902 14.177C23.836 12.269 24.0033 10.333 23.9902 8.39401C24.0047 6.44766 23.8373 4.50422 23.4902 2.58901V2.58901ZM9.60422 11.985V4.79201L15.8682 8.39401L9.60422 11.985Z" fill="white"/>
</svg>
