<svg width="45" height="42" viewBox="0 0 45 42" fill="none" xmlns="http://www.w3.org/2000/svg">
<path fill-rule="evenodd" clip-rule="evenodd" d="M0 2C0 0.895431 0.895431 0 2 0H30C31.1046 0 32 0.895431 32 2V8H15V40H2C0.895431 40 0 39.1046 0 38V2ZM6.25 2C6.11193 2 6 2.11193 6 2.25V3.25C6 3.38807 6.11193 3.5 6.25 3.5H25.75C25.8881 3.5 26 3.38807 26 3.25V2.25C26 2.11193 25.8881 2 25.75 2H6.25Z" fill="white"/>
<path fill-rule="evenodd" clip-rule="evenodd" d="M31.7254 7H16C14.8954 7 14 7.89543 14 9V40C14 41.1046 14.8954 42 16 42H40C41.1046 42 42 41.1046 42 40V17.5611L41.996 17.9986L41 17.0026V40C41 40.5523 40.5523 41 40 41H16C15.4477 41 15 40.5523 15 40V9C15 8.44772 15.4477 8 16 8H31.9974L31.004 7.00652L31.7254 7Z" fill="white"/>
<path d="M31.4083 17.5892L31.4932 8.19773L40.7997 17.5043L31.4083 17.5892Z" stroke="white"/>
</svg>
